# xmcd
#
# Track frame offsets:
#	150
#	24321
#	41477
#	60354
#	77097
#	112513
#	140962
#	166679
#	191262
#	219891
#	241651
#	262098
#	283077
#	298231
#	317211
#
# Disc length: 4513 seconds
#
# Revision: 2
# Processed by: cddbd v1.5.1PL2 Copyright (c) Steve Scherf et al.
# Submitted via: audiograbber 1.82.02
#
DISCID=cc119f0f
DTITLE=Romantic Collection - Romantic Collection - Harp
DYEAR=1900
DGENRE=Instrumental
TTITLE0=Erotica
TTITLE1=Dee
TTITLE2=Snowcaps
TTITLE3=Peligroso Amor
TTITLE4=Pyramid
TTITLE5=Theme For An Angel
TTITLE6=Into The Light
TTITLE7=When Are You Coming Back
TTITLE8=Siesta
TTITLE9=Romantic
TTITLE10=Breathe Again
TTITLE11=Don't Say Goodbye
TTITLE12=Skin and Skin
TTITLE13=Canto
TTITLE14=Caricias
EXTD=
EXTT0=
EXTT1=
EXTT2=
EXTT3=
EXTT4=
EXTT5=
EXTT6=
EXTT7=
EXTT8=
EXTT9=
EXTT10=
EXTT11=
EXTT12=
EXTT13=
EXTT14=
PLAYORDER=
